<?xml version="1.0" standalone="no"?>
<!DOCTYPE svg PUBLIC "-//W3C//DTD SVG 20010904//EN"
 "http://www.w3.org/TR/2001/REC-SVG-20010904/DTD/svg10.dtd">
<svg version="1.0" xmlns="http://www.w3.org/2000/svg"
 width="2000.000000pt" height="2645.000000pt" viewBox="0 0 2000.000000 2645.000000"
 preserveAspectRatio="xMidYMid meet">

<g transform="translate(0.000000,2645.000000) scale(0.100000,-0.100000)"
fill="#000000" stroke="none">
<path d="M292 26157 l-52 -53 0 -5689 c0 -5670 2 -5992 35 -6650 137 -2698
677 -4760 1725 -6590 455 -794 975 -1503 1659 -2260 192 -212 890 -910 1111
-1111 1058 -960 2234 -1829 3680 -2719 574 -354 1494 -885 1533 -885 40 0 231
103 747 402 1609 933 2999 1902 4105 2862 615 533 1278 1192 1750 1740 1692
1963 2630 4138 2984 6916 77 601 118 1104 163 2000 8 173 12 1787 15 6109 l4
5875 -53 53 -52 53 -9651 0 -9651 0 -52 -53z m19381 -25 l48 -48 -4 -5865 c-3
-4314 -7 -5926 -15 -6099 -45 -896 -86 -1399 -163 -2000 -376 -2952 -1408
-5212 -3328 -7290 -191 -206 -753 -764 -971 -965 -1285 -1178 -2795 -2248
-4755 -3370 -397 -227 -496 -276 -523 -258 -10 5 -53 29 -97 53 -148 80 -748
426 -1029 595 -1424 853 -2657 1728 -3661 2599 -638 553 -1289 1203 -1784
1781 -1046 1219 -1805 2540 -2302 4005 -443 1302 -695 2753 -784 4495 -33 658
-35 980 -35 6640 l0 5679 47 48 47 48 9631 0 9631 0 47 -48z"/>
<path d="M1247 25203 c-11 -11 -8 -9938 3 -10308 69 -2279 371 -4014 972
-5580 547 -1424 1326 -2671 2437 -3900 789 -871 2250 -2033 3816 -3032 484
-309 1430 -879 1509 -909 16 -6 245 124 721 409 1515 908 2840 1865 3875 2796
161 146 517 480 531 500 8 10 84 95 170 187 776 836 1422 1746 1924 2705 887
1698 1360 3600 1499 6034 41 711 41 681 41 5985 l0 5115 -8746 3 c-4810 1
-8749 -1 -8752 -5z m17479 -4885 c-4 -2680 -11 -5055 -17 -5278 -17 -746 -55
-1369 -120 -1985 -325 -3108 -1323 -5442 -3238 -7570 -434 -483 -1105 -1087
-1858 -1673 -932 -726 -1985 -1429 -3218 -2149 -132 -77 -249 -145 -261 -151
-18 -10 -49 5 -230 110 -1895 1097 -3455 2224 -4687 3386 -408 384 -992 1070
-1412 1657 -561 783 -1024 1629 -1375 2509 -593 1489 -912 3136 -1010 5211
-25 535 -30 1266 -36 5878 l-6 4927 8737 0 8737 0 -6 -4872z"/>
<path d="M1760 23855 c0 -13 411 -2472 416 -2488 5 -16 22 -17 221 -15 l216 3
150 535 c82 294 152 538 155 542 4 4 75 -237 158 -535 l151 -542 219 0 218 0
207 1225 c115 674 208 1237 208 1253 l1 27 -250 0 -250 0 -5 -22 c-3 -13 -48
-322 -100 -688 -52 -366 -96 -668 -98 -673 -1 -4 -75 253 -163 570 l-161 578
-130 3 -129 3 -165 -592 c-90 -325 -165 -585 -167 -578 -5 27 -192 1380 -192
1389 0 6 -98 10 -255 10 -140 0 -255 -2 -255 -5z"/>
<path d="M4550 22605 l0 -1255 245 0 245 0 -2 1253 -3 1252 -242 3 -243 2 0
-1255z"/>
<path d="M5868 23702 l-168 -157 0 -421 0 -422 167 -156 168 -156 412 0 413 0
0 -290 0 -290 -575 0 -575 0 0 -132 0 -133 104 -97 104 -98 559 0 558 1 168
156 167 157 0 436 0 436 -167 157 -167 157 -413 0 -413 0 0 270 0 270 575 0
575 0 0 133 0 134 -109 101 -109 102 -554 -1 -553 0 -167 -157z"/>
<path d="M8208 23702 l-168 -157 0 -942 0 -942 166 -155 167 -156 476 0 476 1
168 157 168 157 -3 60 -3 60 -562 3 -563 2 0 815 0 815 565 0 565 0 0 59 0 59
-170 161 -170 161 -473 -1 -472 0 -167 -157z"/>
<path d="M10220 22605 l0 -1255 245 0 245 0 0 510 0 510 345 0 345 0 0 -510 0
-510 245 0 245 0 0 1255 0 1255 -242 -2 -243 -3 -3 -512 -2 -513 -345 0 -345
0 0 515 0 515 -245 0 -245 0 0 -1255z"/>
<path d="M13383 23383 l-502 -468 0 -1306 -1 -1305 500 -467 499 -467 1261 0
1260 0 0 -845 0 -845 -1757 -2 -1758 -3 0 -181 0 -182 499 -466 499 -466 1486
0 1486 0 498 465 497 465 0 2804 0 2804 -497 466 -498 466 -1485 0 -1486 0
-501 -467z m3017 -1748 l0 -915 -1035 0 -1035 0 0 915 0 915 1035 0 1035 0 0
-915z"/>
<path d="M10505 16980 c-3 -5 -1 -10 4 -10 6 0 11 5 11 10 0 6 -2 10 -4 10 -3
0 -8 -4 -11 -10z"/>
<path d="M10471 16924 c0 -11 3 -14 6 -6 3 7 2 16 -1 19 -3 4 -6 -2 -5 -13z"/>
<path d="M10437 16884 c-4 -4 -7 -14 -7 -23 0 -11 3 -12 11 -4 6 6 10 16 7 23
-2 6 -7 8 -11 4z"/>
<path d="M10390 16804 c0 -8 5 -12 10 -9 6 3 10 10 10 16 0 5 -4 9 -10 9 -5 0
-10 -7 -10 -16z"/>
<path d="M10350 16750 c0 -5 5 -10 10 -10 6 0 10 5 10 10 0 6 -4 10 -10 10 -5
0 -10 -4 -10 -10z"/>
<path d="M10280 16635 c0 -8 2 -15 4 -15 2 0 6 7 10 15 3 8 1 15 -4 15 -6 0
-10 -7 -10 -15z"/>
<path d="M10237 16583 c-10 -9 -9 -23 2 -23 5 0 11 7 15 15 5 15 -5 20 -17 8z"/>
<path d="M10200 16519 c0 -5 5 -7 10 -4 6 3 10 8 10 11 0 2 -4 4 -10 4 -5 0
-10 -5 -10 -11z"/>
<path d="M10160 16459 c0 -11 5 -17 10 -14 6 3 10 13 10 21 0 8 -4 14 -10 14
-5 0 -10 -9 -10 -21z"/>
<path d="M10126 16415 c-3 -8 -1 -15 4 -15 6 0 10 7 10 15 0 8 -2 15 -4 15 -2
0 -6 -7 -10 -15z"/>
<path d="M9392 16373 c-12 -13 -49 -59 -82 -101 -90 -117 -94 -121 -112 -144
-10 -12 -18 -27 -18 -34 0 -7 -15 -27 -32 -46 -53 -55 -118 -135 -118 -146 0
-5 -17 -28 -37 -51 -71 -77 -103 -119 -116 -153 -3 -10 -11 -18 -16 -18 -5 0
-25 -25 -45 -55 -20 -30 -41 -57 -46 -60 -6 -3 -10 -23 -10 -43 0 -30 7 -44
40 -74 44 -42 44 -66 0 -75 -36 -7 -107 -72 -124 -115 -8 -18 -17 -63 -21
-101 -4 -37 -12 -71 -19 -75 -16 -10 -66 -86 -66 -100 0 -6 -6 -15 -13 -19 -7
-4 -21 -21 -32 -38 -22 -33 -24 -36 -78 -127 -20 -35 -43 -72 -49 -83 -7 -11
-29 -46 -50 -78 -21 -32 -38 -60 -38 -63 0 -3 -16 -25 -35 -48 -19 -24 -35
-48 -35 -55 0 -6 -9 -20 -21 -32 -11 -11 -22 -30 -24 -41 -3 -12 -15 -32 -27
-46 -24 -27 -45 -51 -65 -76 -7 -8 -13 -21 -13 -29 0 -8 -8 -25 -19 -38 -28
-37 -34 -66 -16 -73 9 -3 13 -11 9 -17 -5 -9 -11 -7 -20 5 -11 16 -14 16 -36
2 -31 -20 -65 -67 -102 -136 -16 -30 -35 -66 -42 -80 -7 -14 -15 -53 -17 -86
-3 -55 -8 -67 -51 -122 -26 -33 -54 -63 -61 -66 -8 -3 -54 14 -102 38 -214
106 -240 116 -286 116 -44 0 -52 5 -129 73 -73 64 -266 197 -288 197 -10 0
-124 54 -180 85 -25 14 -54 25 -65 25 -11 1 -31 7 -45 15 -14 8 -41 14 -61 15
-24 0 -43 8 -58 24 -14 15 -37 25 -64 28 -23 3 -76 21 -117 40 -97 46 -177 70
-200 63 -12 -4 -37 4 -63 19 -24 14 -52 26 -62 26 -9 0 -43 11 -74 24 -179 76
-434 166 -470 166 -48 0 -277 77 -311 104 -8 7 -44 21 -80 30 -36 10 -82 25
-103 32 -31 12 -43 12 -70 1 -17 -7 -59 -19 -92 -26 -33 -8 -87 -24 -120 -36
-61 -23 -259 -88 -305 -100 -51 -13 -287 -88 -330 -105 -25 -9 -83 -25 -130
-35 -47 -9 -95 -23 -107 -31 -12 -7 -41 -16 -65 -19 -48 -7 -124 -26 -213 -55
-50 -16 -82 -19 -195 -16 -150 3 -178 -5 -213 -66 -23 -40 -22 -50 11 -79 55
-50 122 -88 357 -202 132 -65 254 -125 270 -133 60 -32 201 -108 245 -132 25
-14 88 -49 140 -78 52 -28 136 -77 185 -109 50 -31 132 -77 184 -101 121 -58
223 -117 285 -167 28 -21 70 -49 95 -62 25 -12 70 -39 100 -59 53 -36 56 -37
140 -34 86 3 87 3 137 -34 27 -20 70 -60 94 -90 25 -29 83 -90 130 -135 70
-68 95 -85 140 -99 30 -8 62 -22 71 -30 9 -8 52 -30 96 -48 115 -49 155 -71
182 -100 32 -34 97 -53 202 -60 93 -5 138 -22 259 -96 36 -22 81 -47 100 -56
19 -8 62 -29 96 -45 33 -16 67 -29 75 -29 23 -1 99 -38 133 -66 17 -14 56 -42
87 -62 31 -20 87 -65 125 -99 83 -73 172 -147 259 -213 36 -27 71 -54 77 -59
7 -6 42 -34 78 -63 36 -28 89 -73 118 -99 28 -26 76 -57 105 -67 28 -11 87
-36 130 -56 43 -20 82 -36 87 -36 4 0 58 -32 119 -70 120 -76 142 -87 213
-100 31 -6 77 -30 135 -68 48 -33 120 -73 158 -90 39 -16 104 -46 146 -66 42
-20 82 -36 87 -36 15 0 108 -56 152 -90 56 -44 159 -97 261 -134 175 -64 214
-80 239 -96 14 -10 75 -39 135 -65 61 -27 121 -56 135 -66 14 -9 48 -28 75
-41 66 -33 377 -193 540 -278 72 -37 174 -93 228 -124 54 -31 100 -56 102 -56
2 0 68 -40 147 -88 78 -48 168 -100 198 -115 30 -15 73 -38 95 -52 22 -13 58
-35 80 -48 142 -86 357 -209 455 -260 63 -33 154 -81 202 -108 48 -27 91 -49
95 -49 9 0 157 -84 418 -235 94 -54 184 -105 200 -113 49 -24 218 -124 245
-144 164 -126 280 -159 423 -122 114 29 203 90 427 291 60 54 142 125 184 158
41 33 99 81 128 107 29 26 88 69 131 95 43 27 142 96 220 154 145 108 414 276
566 352 69 34 104 61 191 147 59 58 114 121 123 142 34 73 16 138 -54 204 -44
41 -179 138 -231 165 -15 8 -57 31 -93 52 -101 59 -618 317 -634 317 -8 0 -37
11 -65 25 -28 13 -116 49 -196 80 -161 62 -199 78 -313 129 -44 20 -82 36 -85
36 -4 1 -25 9 -47 20 -22 11 -44 19 -49 20 -13 0 -139 50 -151 60 -5 4 -24 11
-41 14 -18 4 -40 16 -50 27 -9 10 -25 19 -34 19 -10 0 -23 7 -30 16 -8 8 -30
23 -49 33 -20 10 -74 39 -122 63 -47 25 -94 48 -105 51 -10 4 -26 11 -34 16
-8 5 -31 17 -50 27 -19 9 -62 30 -95 45 -33 16 -68 34 -77 39 -10 6 -26 10
-37 10 -10 0 -24 6 -30 14 -7 8 -26 18 -43 22 -17 3 -45 15 -62 25 -17 10 -43
19 -57 19 -15 0 -32 7 -39 15 -7 8 -19 15 -27 15 -8 0 -33 9 -55 20 -23 11
-51 20 -63 20 -12 0 -30 9 -40 20 -10 11 -28 20 -40 20 -13 0 -28 7 -35 15 -7
8 -18 15 -24 15 -6 0 -29 10 -51 21 -22 12 -69 32 -105 45 -36 12 -78 30 -95
38 -16 9 -40 16 -53 16 -12 0 -40 9 -62 20 -22 11 -47 20 -57 20 -11 0 -36 9
-58 20 -22 11 -49 20 -61 20 -11 0 -58 18 -104 41 -45 23 -88 42 -94 43 -6 1
-21 7 -33 14 -12 7 -28 12 -36 12 -14 0 -107 47 -117 60 -3 3 -26 22 -51 43
-58 47 -177 84 -297 92 -48 3 -117 11 -153 16 -37 6 -109 14 -160 19 -52 4
-132 16 -179 27 -80 17 -85 20 -104 55 -12 24 -31 42 -55 52 -20 8 -76 33
-126 56 -49 22 -103 47 -120 55 -16 7 -55 25 -85 39 -30 14 -60 26 -66 26 -6
0 -31 11 -55 24 -24 13 -63 29 -85 35 -28 7 -66 33 -113 75 -83 75 -190 142
-258 162 -26 8 -57 18 -68 23 -11 5 -36 12 -56 15 -22 4 -72 32 -125 70 -74
53 -110 70 -214 105 -69 23 -150 44 -180 46 -30 3 -73 13 -95 21 -22 9 -50 20
-62 25 -13 5 -23 17 -23 27 0 43 31 120 61 147 17 17 69 89 116 160 47 72 96
146 109 166 13 19 24 41 24 48 0 13 49 83 63 89 4 2 7 9 7 17 0 7 7 19 17 26
9 8 27 38 40 67 13 29 29 55 37 58 8 3 18 19 21 35 4 16 11 29 15 29 15 0 100
126 100 148 0 12 8 29 18 39 34 34 92 110 92 122 0 6 8 19 18 29 25 26 62 80
62 90 0 13 31 50 95 113 146 143 135 125 135 207 0 69 1 73 26 82 21 8 33 6
59 -10 48 -30 85 -26 115 11 14 18 33 39 43 48 9 8 17 23 17 33 0 9 6 23 13
30 7 7 28 39 46 70 18 32 36 60 42 63 5 4 9 14 9 24 0 10 9 30 20 44 11 14 20
32 20 41 0 9 9 24 20 33 11 10 20 27 20 39 0 11 9 29 20 39 11 10 20 28 20 40
0 12 9 30 20 40 11 10 20 28 20 39 0 12 9 29 20 39 11 9 20 25 20 36 0 10 7
24 15 31 8 7 15 22 15 35 0 12 9 30 20 40 11 10 20 28 20 41 0 13 9 28 21 35
19 10 21 18 17 77 -4 62 -6 67 -46 103 -39 34 -42 40 -42 88 0 32 -4 50 -10
46 -5 -3 -10 -15 -10 -25 0 -10 -4 -21 -9 -24 -16 -10 -109 30 -153 66 -23 19
-59 43 -78 53 -19 10 -59 35 -89 56 -30 22 -64 39 -75 39 -12 0 -29 9 -39 20
-26 30 -104 26 -135 -7z m-242 -488 c0 -17 -39 -59 -47 -51 -5 5 34 66 43 66
2 0 4 -7 4 -15z m170 -1 c0 -16 -23 -44 -35 -44 -21 0 -19 27 3 39 19 12 32
14 32 5z m-259 -127 c-13 -13 -26 -3 -16 12 3 6 11 8 17 5 6 -4 6 -10 -1 -17z
m-40 -59 c-11 -28 -37 -52 -44 -41 -6 9 42 77 49 70 3 -2 0 -15 -5 -29z m27
-582 c6 -31 -7 -64 -29 -71 -40 -13 -53 41 -18 76 23 23 42 21 47 -5z m-88
-169 c-15 -67 -57 -125 -228 -312 -10 -11 -22 -29 -26 -39 -3 -10 -9 -16 -13
-13 -9 9 27 80 49 95 10 7 18 18 18 23 0 6 22 43 49 82 26 40 60 94 76 121 49
87 91 111 75 43z m-284 -403 c-3 -9 -6 -20 -6 -25 0 -5 -4 -9 -10 -9 -11 0
-14 33 -3 43 12 13 25 7 19 -9z m-66 -130 c0 -21 -121 -184 -137 -184 -7 0
-13 5 -13 11 0 24 23 89 32 89 5 0 13 11 18 25 5 14 18 28 27 32 10 4 24 15
31 25 16 22 42 24 42 2z m-4952 -282 c2 -7 -3 -12 -12 -12 -9 0 -16 7 -16 16
0 17 22 14 28 -4z m3320 -262 c31 -19 45 -60 20 -60 -38 0 -138 24 -138 33 0
20 33 47 59 47 14 0 41 -9 59 -20z m69 -124 c3 -3 -3 -8 -13 -11 -10 -3 -37
-14 -59 -25 -137 -64 -175 -80 -221 -93 -28 -8 -64 -22 -80 -30 -16 -8 -45
-18 -64 -22 -19 -4 -54 -16 -77 -26 -23 -11 -45 -19 -49 -19 -4 0 -131 -40
-283 -89 -152 -49 -292 -94 -311 -100 -76 -22 -177 -59 -207 -77 -32 -19 -34
-19 -65 0 -18 10 -50 27 -71 38 -71 38 -81 88 -17 88 28 0 46 22 34 42 -5 8 9
9 44 4 53 -7 102 7 102 30 0 16 23 24 71 24 51 0 116 27 122 51 4 16 14 19 72
19 52 0 71 4 80 17 8 10 34 19 73 23 37 5 73 16 92 30 19 14 55 25 92 30 40 4
65 13 74 24 8 12 29 19 63 22 27 2 76 12 109 23 42 14 95 22 176 25 65 2 119
6 122 8 6 7 184 1 191 -6z m-1717 -437 c0 -5 -9 -9 -20 -9 -19 0 -26 11 -14
23 8 8 34 -3 34 -14z m-91 -63 c15 -8 40 -12 63 -8 21 2 64 -3 99 -12 33 -10
63 -15 67 -12 3 3 0 6 -6 6 -7 0 -12 9 -12 20 0 30 29 25 115 -20 42 -22 82
-40 90 -40 8 0 18 -6 22 -14 4 -7 19 -19 32 -25 16 -9 20 -16 13 -23 -7 -7
-21 -4 -45 11 -39 24 -79 28 -71 7 3 -7 15 -18 28 -24 17 -7 25 -21 29 -52 7
-54 15 -62 105 -105 117 -56 152 -75 209 -112 29 -19 73 -40 97 -47 25 -8 58
-23 74 -35 17 -11 34 -21 38 -21 9 0 237 -131 244 -140 3 -4 19 -9 35 -13 36
-7 125 -55 125 -68 0 -16 -49 -10 -87 11 -21 11 -45 20 -55 20 -9 0 -19 4 -22
9 -7 10 -135 38 -185 39 -19 1 -51 13 -74 29 -21 15 -49 33 -61 40 -43 25
-207 103 -217 103 -5 0 -42 15 -82 34 -57 28 -88 52 -151 118 -183 193 -207
215 -269 247 -56 28 -68 31 -118 25 -49 -6 -58 -4 -84 18 -46 40 -4 66 54 34z
m541 -156 c0 -5 -7 -10 -15 -10 -8 0 -15 5 -15 10 0 6 7 10 15 10 8 0 15 -4
15 -10z m66 -35 c10 -8 14 -15 7 -15 -19 0 -43 11 -43 21 0 13 14 11 36 -6z
m134 -66 c36 -17 83 -37 104 -44 43 -13 51 -22 37 -43 -7 -12 -14 -11 -39 2
-17 9 -40 16 -52 16 -41 0 -160 79 -160 106 0 16 14 11 110 -37z m510 -340 c0
-5 -7 -9 -15 -9 -15 0 -20 12 -9 23 8 8 24 -1 24 -14z m300 -239 c0 -5 -4 -10
-9 -10 -6 0 -13 5 -16 10 -3 6 1 10 9 10 9 0 16 -4 16 -10z m3489 -34 c6 -8
24 -16 39 -19 38 -7 90 -26 135 -49 32 -16 43 -17 72 -8 28 9 45 8 97 -9 109
-34 141 -48 227 -98 89 -51 113 -75 95 -93 -21 -21 -73 -13 -134 19 -34 18
-64 31 -66 28 -3 -3 3 -8 14 -11 11 -4 23 -13 26 -21 3 -8 14 -15 25 -15 25 0
34 -14 26 -40 -4 -14 -15 -20 -35 -20 -17 0 -51 -17 -90 -46 -34 -25 -126 -78
-205 -117 -79 -40 -235 -122 -347 -183 -111 -61 -250 -135 -308 -164 -227
-113 -268 -135 -354 -186 -49 -30 -94 -54 -100 -54 -6 0 -20 -7 -30 -15 -26
-20 -43 -19 -73 5 -14 11 -34 20 -43 20 -10 0 -20 7 -24 15 -3 8 -14 15 -24
15 -11 0 -31 9 -45 20 -31 24 -56 28 -37 5 7 -8 18 -15 24 -15 6 0 17 -9 24
-20 7 -11 23 -20 36 -20 13 0 26 -7 29 -15 4 -8 21 -18 39 -23 40 -10 47 -33
18 -62 -20 -20 -23 -20 -45 -6 -14 9 -32 16 -40 16 -24 0 -12 -24 14 -28 12
-2 25 -10 28 -19 8 -21 -14 -87 -36 -107 -21 -19 -26 -17 -179 64 -9 4 -39 19
-67 33 -27 14 -75 41 -105 61 -30 20 -70 39 -90 42 -19 3 -45 12 -57 20 -12 8
-35 14 -50 14 -24 0 -49 11 -148 67 -47 27 -552 271 -575 278 -39 12 -99 53
-170 115 -97 85 -165 132 -265 185 -49 26 -102 56 -117 66 -14 11 -29 19 -32
19 -21 0 -255 190 -255 208 -2 23 24 12 117 -48 50 -33 93 -60 96 -60 2 0 37
-20 76 -44 40 -25 86 -48 104 -52 35 -7 224 -105 273 -140 17 -13 36 -24 41
-24 5 0 17 -9 27 -20 10 -11 27 -22 38 -26 11 -3 39 -21 62 -39 24 -18 65 -42
91 -54 27 -12 58 -27 69 -34 127 -70 392 -197 404 -193 9 2 34 11 56 19 36 14
43 13 75 -3 19 -10 71 -37 115 -58 114 -57 137 -70 144 -79 3 -4 26 -18 51
-31 47 -24 111 -67 120 -81 3 -4 18 -11 34 -15 15 -4 35 -14 43 -21 8 -8 21
-15 30 -15 22 0 10 25 -15 28 -11 2 -24 12 -27 23 -4 10 -11 19 -16 19 -6 0
-21 11 -34 24 -13 13 -50 45 -82 70 -32 25 -63 50 -69 55 -37 30 -157 81 -192
81 -29 0 -80 17 -127 41 -16 9 -43 19 -59 23 -17 4 -41 15 -55 25 -23 15 -109
55 -211 98 -168 71 -345 170 -359 200 -9 21 -8 25 15 33 52 20 88 8 174 -60
19 -15 94 -58 165 -95 72 -38 146 -76 165 -87 19 -10 53 -18 76 -18 23 0 55
-7 71 -15 61 -32 198 -85 218 -85 22 0 18 18 -5 25 -34 11 -23 29 33 54 152
68 279 127 336 157 35 19 69 34 76 34 6 0 46 18 89 40 42 22 85 40 95 40 10 0
29 9 43 19 13 11 49 28 79 38 30 10 70 28 90 41 21 12 63 31 95 42 32 11 65
27 74 35 10 9 30 20 46 25 16 5 79 29 139 54 61 25 120 46 132 46 12 0 34 11
48 24 22 21 35 24 80 22 30 -1 61 -8 69 -15 8 -7 30 -11 48 -9 l33 3 -39 25
c-22 14 -54 33 -70 43 -73 42 -90 54 -94 65 -5 17 63 16 77 -2z m470 -657 c36
-5 80 -14 97 -20 17 -5 49 -11 72 -13 49 -5 62 -12 62 -35 0 -23 -19 -41 -44
-41 -10 0 -61 -20 -112 -45 -50 -25 -99 -45 -106 -45 -8 0 -23 -9 -33 -20 -10
-11 -29 -20 -42 -20 -13 0 -26 -6 -29 -14 -3 -8 -18 -18 -34 -21 -16 -3 -34
-12 -40 -20 -6 -8 -24 -17 -40 -20 -16 -3 -34 -13 -41 -21 -6 -8 -21 -14 -34
-14 -12 0 -30 -9 -40 -20 -10 -11 -31 -20 -46 -20 -15 0 -40 -5 -54 -10 -27
-10 -65 -2 -145 33 -19 9 -70 21 -113 28 -43 6 -80 15 -82 19 -9 15 28 50 60
56 20 3 37 10 40 14 7 12 330 170 347 170 8 0 23 9 33 20 10 11 27 20 38 20
11 0 28 6 36 14 38 34 136 44 250 25z"/>
<path d="M5580 13169 c0 -5 5 -7 10 -4 6 3 10 8 10 11 0 2 -4 4 -10 4 -5 0
-10 -5 -10 -11z"/>
<path d="M10410 12220 c0 -6 7 -10 15 -10 8 0 15 2 15 4 0 2 -7 6 -15 10 -8 3
-15 1 -15 -4z"/>
<path d="M10510 12180 c0 -5 5 -10 11 -10 5 0 7 5 4 10 -3 6 -8 10 -11 10 -2
0 -4 -4 -4 -10z"/>
<path d="M10562 12148 c5 -15 28 -23 28 -10 0 5 -7 13 -16 16 -10 4 -14 1 -12
-6z"/>
<path d="M8835 11550 c-4 -6 -4 -10 -1 -10 2 0 11 -3 20 -6 9 -3 16 -2 16 4 0
14 -28 23 -35 12z"/>
<path d="M8900 11500 c0 -5 7 -10 15 -10 8 0 15 5 15 10 0 6 -7 10 -15 10 -8
0 -15 -4 -15 -10z"/>
<path d="M8950 11471 c0 -11 31 -24 39 -16 3 3 -1 10 -9 15 -19 12 -30 12 -30
1z"/>
<path d="M9010 11431 c0 -11 26 -22 34 -14 3 3 3 10 0 14 -7 12 -34 11 -34 0z"/>
<path d="M10090 16348 c0 -19 2 -20 10 -8 13 19 13 30 0 30 -5 0 -10 -10 -10
-22z"/>
<path d="M10045 16289 c-4 -6 -5 -13 -2 -16 7 -7 27 6 27 18 0 12 -17 12 -25
-2z"/>
<path d="M10007 16228 c-4 -12 -4 -24 -1 -27 6 -7 24 20 24 37 0 21 -17 13
-23 -10z"/>
<path d="M3530 14460 c0 -5 7 -10 15 -10 8 0 15 5 15 10 0 6 -7 10 -15 10 -8
0 -15 -4 -15 -10z"/>
<path d="M15768 10403 c7 -3 16 -2 19 1 4 3 -2 6 -13 5 -11 0 -14 -3 -6 -6z"/>
<path d="M10544 9178 c-4 -13 -29 -50 -55 -83 -27 -33 -49 -66 -49 -75 0 -16
21 7 95 104 25 33 45 63 45 68 0 18 -29 7 -36 -14z"/>
</g>
</svg>
